<?xml version="1.0" encoding="UTF-8"?>
<!DOCTYPE svg PUBLIC "-//W3C//DTD SVG 1.1//EN" "http://www.w3.org/Graphics/SVG/1.1/DTD/svg11.dtd">
<svg xmlns="http://www.w3.org/2000/svg" version="1.1" width="512px" height="512px" style="shape-rendering:geometricPrecision; text-rendering:geometricPrecision; image-rendering:optimizeQuality; fill-rule:evenodd; clip-rule:evenodd" xmlns:xlink="http://www.w3.org/1999/xlink">
<g><path style="opacity:0.995" fill="#000000" d="M 232.5,-0.5 C 247.833,-0.5 263.167,-0.5 278.5,-0.5C 368.144,10.3879 435.644,54.7213 481,132.5C 497.695,163.971 507.861,197.304 511.5,232.5C 511.5,247.833 511.5,263.167 511.5,278.5C 500.612,368.144 456.279,435.644 378.5,481C 347.029,497.695 313.696,507.861 278.5,511.5C 263.167,511.5 247.833,511.5 232.5,511.5C 142.856,500.612 75.3562,456.279 30,378.5C 13.3053,347.029 3.1386,313.696 -0.5,278.5C -0.5,263.167 -0.5,247.833 -0.5,232.5C 11.9064,135.82 61.573,65.6535 148.5,22C 175.448,10.0983 203.448,2.59834 232.5,-0.5 Z"/></g>
<g><path style="opacity:1" fill="#fbfbfb" d="M 238.5,351.5 C 235.573,352.757 233.239,354.757 231.5,357.5C 227.37,362.131 223.037,366.631 218.5,371C 215.019,372.686 211.352,373.519 207.5,373.5C 208.579,351.142 210.079,328.809 212,306.5C 234.037,286.293 256.204,266.293 278.5,246.5C 280.749,245.92 282.415,244.587 283.5,242.5C 299.137,227.699 314.97,213.033 331,198.5C 331.591,197.517 331.257,196.85 330,196.5C 322.538,200.231 315.205,204.231 308,208.5C 265.434,236.062 222.601,263.228 179.5,290C 177.167,290.667 174.833,290.667 172.5,290C 152.167,283.667 131.833,277.333 111.5,271C 101.265,266.914 99.9317,260.914 107.5,253C 189.309,220.617 271.309,188.617 353.5,157C 358.598,154.615 363.931,153.115 369.5,152.5C 375.57,152.28 379.737,154.947 382,160.5C 382.667,165.833 382.667,171.167 382,176.5C 367.698,243.724 353.365,311.058 339,378.5C 335.26,387.168 328.76,390.001 319.5,387C 296.721,371.221 274.221,355.054 252,338.5C 247.605,343.064 243.105,347.398 238.5,351.5 Z"/></g>
<g><path style="opacity:1" fill="#8c8c8c" d="M 283.5,242.5 C 282.415,244.587 280.749,245.92 278.5,246.5C 279.585,244.413 281.251,243.08 283.5,242.5 Z"/></g>
<g><path style="opacity:1" fill="#717171" d="M 238.5,351.5 C 236.761,354.243 234.427,356.243 231.5,357.5C 233.239,354.757 235.573,352.757 238.5,351.5 Z"/></g>
</svg>
