<?xml version="1.0" encoding="UTF-8"?>
<!DOCTYPE svg PUBLIC "-//W3C//DTD SVG 1.1//EN" "http://www.w3.org/Graphics/SVG/1.1/DTD/svg11.dtd">
<svg xmlns="http://www.w3.org/2000/svg" version="1.1" width="512px" height="512px" style="shape-rendering:geometricPrecision; text-rendering:geometricPrecision; image-rendering:optimizeQuality; fill-rule:evenodd; clip-rule:evenodd" xmlns:xlink="http://www.w3.org/1999/xlink">
<g><path style="opacity:0.995" fill="#000000" d="M 232.5,-0.5 C 247.833,-0.5 263.167,-0.5 278.5,-0.5C 368.144,10.3879 435.644,54.7213 481,132.5C 497.695,163.971 507.861,197.304 511.5,232.5C 511.5,247.833 511.5,263.167 511.5,278.5C 500.612,368.144 456.279,435.644 378.5,481C 347.029,497.695 313.696,507.861 278.5,511.5C 263.167,511.5 247.833,511.5 232.5,511.5C 142.856,500.612 75.3562,456.279 30,378.5C 13.3053,347.029 3.1386,313.696 -0.5,278.5C -0.5,263.167 -0.5,247.833 -0.5,232.5C 10.3875,142.857 54.7208,75.3573 132.5,30C 163.971,13.3053 197.304,3.1386 232.5,-0.5 Z"/></g>
<g><path style="opacity:1" fill="#fcfcfc" d="M 402.5,405.5 C 372.76,405.825 343.093,405.492 313.5,404.5C 287.343,366.195 261.177,327.862 235,289.5C 201.5,328.333 168,367.167 134.5,406C 125.814,406.832 117.147,406.665 108.5,405.5C 145.82,361.679 183.32,318.013 221,274.5C 221.167,273.667 221.333,272.833 221.5,272C 218.458,265.943 214.958,260.11 211,254.5C 176.638,204.971 142.471,155.304 108.5,105.5C 137.828,104.333 167.161,104.167 196.5,105C 221.96,141.193 247.127,177.693 272,214.5C 303.647,177.976 335.147,141.476 366.5,105C 375.186,104.168 383.853,104.335 392.5,105.5C 356.5,147.833 320.5,190.167 284.5,232.5C 323.808,290.149 363.141,347.815 402.5,405.5 Z"/></g>
<g><path style="opacity:1" fill="#060606" d="M 144.5,125.5 C 157.569,124.17 170.735,124.17 184,125.5C 244.695,212.029 305.195,298.695 365.5,385.5C 352.5,386.833 339.5,386.833 326.5,385.5C 266.413,298.367 205.746,211.7 144.5,125.5 Z"/></g>
<g><path style="opacity:1" fill="#d6d6d6" d="M 313.5,404.5 C 343.093,405.492 372.76,405.825 402.5,405.5C 387.837,406.167 373.004,406.5 358,406.5C 342.818,406.499 327.985,405.833 313.5,404.5 Z"/></g>
</svg>
