<?xml version="1.0" encoding="UTF-8"?>
<!DOCTYPE svg PUBLIC "-//W3C//DTD SVG 1.1//EN" "http://www.w3.org/Graphics/SVG/1.1/DTD/svg11.dtd">
<svg xmlns="http://www.w3.org/2000/svg" version="1.1" width="1024px" height="1024px" style="shape-rendering:geometricPrecision; text-rendering:geometricPrecision; image-rendering:optimizeQuality; fill-rule:evenodd; clip-rule:evenodd" xmlns:xlink="http://www.w3.org/1999/xlink">
<g><path style="opacity:1" fill="#020000" d="M 492.5,5.5 C 552.488,1.77182 604.822,19.6052 649.5,59C 670.748,80.3162 692.081,101.65 713.5,123C 719.129,122.479 724.796,121.812 730.5,121C 750.079,118.38 768.079,122.38 784.5,133C 790.36,138.86 796.194,144.694 802,150.5C 805.833,157.667 809.667,164.833 813.5,172C 825.523,175.342 837.523,178.676 849.5,182C 879.148,191.823 906.482,205.823 931.5,224C 936.362,229.525 941.196,235.025 946,240.5C 954.324,257.961 952.991,274.628 942,290.5C 938.326,293.842 934.992,297.508 932,301.5C 924.766,307.687 917.266,313.52 909.5,319C 928.279,337.779 947.113,356.613 966,375.5C 1011.84,427.335 1028.34,487.501 1015.5,556C 1007.55,590.391 992.055,620.891 969,647.5C 861.167,754 754,861.167 647.5,969C 596.428,1013.19 537.428,1029.19 470.5,1017C 444.824,1011.55 421.157,1001.55 399.5,987C 391.498,981.32 383.832,975.32 376.5,969C 270,861.167 162.833,754 55,647.5C 13.4856,598.262 -2.51441,541.595 7,477.5C 14.7307,437.034 32.7307,402.034 61,372.5C 167.14,266.027 273.64,159.86 380.5,54C 412.819,26.4964 450.152,10.3297 492.5,5.5 Z M 375.5,350.5 C 369.211,398.653 357.378,445.653 340,491.5C 331.976,508.174 321.642,523.174 309,536.5C 296.546,547.952 283.213,558.286 269,567.5C 252.362,551.862 236.029,535.862 220,519.5C 219.358,517.238 218.525,515.071 217.5,513C 218.525,510.929 219.358,508.762 220,506.5C 272.035,454.632 323.868,402.632 375.5,350.5 Z M 722.5,425.5 C 749.465,451.965 776.299,478.632 803,505.5C 804.303,507.94 805.47,510.44 806.5,513C 805.906,515.79 804.739,518.29 803,520.5C 763.667,559.833 724.333,599.167 685,638.5C 672.385,600.305 668.719,561.305 674,521.5C 675.322,511.909 677.655,502.576 681,493.5C 685.297,483.249 689.964,473.249 695,463.5C 703.611,450.396 712.777,437.729 722.5,425.5 Z"/></g>
<g><path style="opacity:1" fill="#fefefe" d="M 764.5,144.5 C 767.5,148.167 770.833,151.5 774.5,154.5C 782.105,163.872 787.772,174.372 791.5,186C 815.504,192.251 839.171,199.584 862.5,208C 885.495,216.236 905.995,228.403 924,244.5C 938.329,263.598 937.662,282.265 922,300.5C 908.939,313.903 894.439,325.403 878.5,335C 836.399,358.383 792.399,377.383 746.5,392C 729.849,399.477 715.182,409.644 702.5,422.5C 698.5,424.5 695.5,427.5 693.5,431.5C 679.208,445.973 667.374,462.306 658,480.5C 638.41,519.856 627.41,561.523 625,605.5C 624.333,623.833 624.333,642.167 625,660.5C 626.136,672.525 627.136,684.525 628,696.5C 591.5,733 555,769.5 518.5,806C 514.167,809.333 509.833,809.333 505.5,806C 434.653,735.32 363.986,664.486 293.5,593.5C 326.159,559.639 349.993,520.306 365,475.5C 369.904,455.74 373.404,435.74 375.5,415.5C 376.473,413.052 376.806,410.385 376.5,407.5C 378.798,386.719 379.965,365.719 380,344.5C 409.696,256.81 469.529,201.643 559.5,179C 589.07,171.807 619.07,167.64 649.5,166.5C 667.471,137.683 693.471,125.183 727.5,129C 741.082,131.465 753.415,136.632 764.5,144.5 Z"/></g>
<g><path style="opacity:1" fill="#525058" d="M 764.5,144.5 C 768.833,146.833 772.167,150.167 774.5,154.5C 770.833,151.5 767.5,148.167 764.5,144.5 Z"/></g>
<g><path style="opacity:1" fill="#1f1f1f" d="M 735.5,150.5 C 761.95,161.726 774.45,181.726 773,210.5C 766.753,241.749 747.753,258.415 716,260.5C 684.452,258.375 665.785,241.709 660,210.5C 658.063,196.181 661.229,183.181 669.5,171.5C 680.604,188.384 695.604,193.217 714.5,186C 725.139,180.21 731.473,171.377 733.5,159.5C 734.167,156.5 734.833,153.5 735.5,150.5 Z"/></g>
<g><path style="opacity:1" fill="#9c9c9c" d="M 735.5,150.5 C 734.833,153.5 734.167,156.5 733.5,159.5C 733.18,156.102 733.513,152.768 734.5,149.5C 735.107,149.624 735.44,149.957 735.5,150.5 Z"/></g>
<g><path style="opacity:1" fill="#d2b9fe" d="M 376.5,407.5 C 376.806,410.385 376.473,413.052 375.5,415.5C 375.062,415.565 374.728,415.399 374.5,415C 375.123,412.393 375.79,409.893 376.5,407.5 Z"/></g>
<g><path style="opacity:1" fill="#4d4852" d="M 702.5,422.5 C 699.833,425.833 696.833,428.833 693.5,431.5C 695.5,427.5 698.5,424.5 702.5,422.5 Z"/></g>
</svg>
